<svg width="200" height="100" fill="none" xmlns="http://www.w3.org/2000/svg"><path d="M49.5 9.533V10.9l-5.633 1.333-.767.167.167.767 2.766 11.766-12.366 2.9L32.9 28l.2.767 3.1 13.3.2.767.733-.167 12.367-2.9v11.4H29.067V9.533H49.5Z" fill="#284CCB"/><path d="m58 9.7 2.933 12.567 13.1-3.067 3.1 13.3-13.1 3.067L66.967 48.1l-13.9 3.233L50.133 38.8l-13.1 3.067-3.1-13.3 13.1-3.067L44.1 12.967 58 9.7Z" fill="#C126CE"/><path d="M90.6 49.733a14.299 14.299 0 0 1-3.167-1.133c-1-.5-1.9-1.1-2.733-1.867a12.142 12.142 0 0 1-2.133-2.566 12.08 12.08 0 0 1-1.4-3.267 15.216 15.216 0 0 1-.5-3.967c0-1.233.133-2.4.4-3.533.266-1.133.666-2.2 1.166-3.167.5-1 1.134-1.9 1.934-2.7.8-.8 1.666-1.5 2.633-2.066a12.018 12.018 0 0 1 3.333-1.334c1.267-.3 2.567-.466 3.967-.466 1.867 0 3.733.4 5.633 1.233a13.17 13.17 0 0 1 4.867 3.733l-5.033 4.334a8.948 8.948 0 0 0-1-.934 8.835 8.835 0 0 0-1.234-.833c-.466-.267-.966-.5-1.533-.633-.567-.134-1.133-.234-1.7-.234-.633 0-1.267.1-1.867.267-.6.167-1.166.433-1.7.833-.533.367-1 .834-1.366 1.334a6.52 6.52 0 0 0-.934 1.866c-.233.734-.333 1.5-.333 2.367s.133 1.7.433 2.5.667 1.5 1.2 2.1a5.773 5.773 0 0 0 1.967 1.433c.8.367 1.667.534 2.6.534 1 0 2-.234 3-.734a7 7 0 0 0 2.467-1.9l5.033 4.334c-1.2 1.466-2.7 2.633-4.5 3.566-1.8.934-3.8 1.367-6 1.367-1.233-.067-2.367-.2-3.5-.467ZM117.267 31.6v6.933c-.367-.033-.8-.033-1.367-.033-1.2 0-2.133.3-2.733.933-.6.634-.933 1.467-.933 2.534v7.766h-6.467V32h6.467v2.433h.066c.634-.9 1.367-1.6 2.234-2.066.866-.467 1.766-.734 2.733-.734V31.6Z" fill="#fff"/><path d="M136.133 32 127 56.933h-6.3l3-8.466L116.933 32h6.667l3 8.4h.067L129.5 32h6.633ZM150.3 31.933c.667.2 1.333.5 1.9.867s1.1.834 1.567 1.4a9.72 9.72 0 0 1 1.2 1.833c.333.667.6 1.434.766 2.267.167.834.267 1.667.267 2.567 0 1.8-.333 3.4-1.033 4.833-.7 1.433-1.667 2.5-2.934 3.267-1.266.767-2.666 1.166-4.3 1.166-1.833 0-3.3-.633-4.4-1.9v8.7h-6.466V32h6.5v1.8h.066c1.234-1.433 2.834-2.166 4.767-2.166.7-.034 1.4.1 2.1.3Zm-1.667 11.534c.6-.667.9-1.533.9-2.6 0-1.067-.3-1.9-.9-2.567-.6-.666-1.333-1-2.266-1-.967 0-1.734.334-2.367 1-.633.667-.933 1.534-.933 2.567 0 1.067.3 1.933.933 2.6.6.666 1.4.967 2.367.967.9.033 1.666-.3 2.266-.967ZM161.367 49.767A4.61 4.61 0 0 1 159.7 48.7c-.467-.467-.867-1.1-1.133-1.867-.267-.766-.4-1.633-.4-2.633v-7.033h-1.934V32h1.934v-5.6l6.466-.667V32h3.867v5.133h-3.867v5.634a3.417 3.417 0 0 0 .167 1.2c.067.2.2.333.367.433.166.1.366.167.633.167.467 0 .9-.1 1.3-.3l1.567 4.5c-.767.433-1.534.766-2.3.966-.767.234-1.734.334-2.9.334a4.8 4.8 0 0 1-2.1-.3Z" fill="#fff"/><path d="M173.067 48.967A8.611 8.611 0 0 1 169.6 45.7c-.833-1.4-1.233-3-1.233-4.8 0-1.8.4-3.4 1.233-4.8.833-1.4 1.967-2.5 3.467-3.267 1.466-.766 3.166-1.166 5.066-1.166s3.567.4 5.034 1.166a8.616 8.616 0 0 1 3.466 3.267c.834 1.4 1.234 3 1.234 4.8 0 1.8-.4 3.4-1.234 4.8-.833 1.4-1.966 2.5-3.466 3.267-1.5.766-3.167 1.166-5.034 1.166-1.9 0-3.566-.4-5.066-1.166Zm7.366-5.567c.6-.667.934-1.5.934-2.533 0-1.034-.3-1.9-.9-2.534-.6-.666-1.367-.966-2.334-.966-.466 0-.9.1-1.3.266-.4.167-.733.434-1.033.734-.267.3-.5.666-.667 1.1-.166.433-.233.9-.233 1.4 0 .4.067.766.167 1.133s.266.7.433.967c.2.3.433.533.7.733.267.2.567.367.9.5.333.1.667.167 1.033.167.9.033 1.7-.3 2.3-.967Z" fill="#fff"/><path d="M7.6 54.1h17.5v6.3H14.433v3.967H22.8V70.5h-8.4v3.7h11.467v6.267H7.6V54.1ZM56.767 69.833v10.634h-6.6v-9.134c0-.3 0-.566-.034-.8-.033-.233-.033-.5-.1-.733a3.903 3.903 0 0 0-.166-.667c-.067-.2-.167-.366-.267-.566-.1-.167-.233-.3-.4-.4-.167-.1-.333-.2-.533-.267s-.434-.1-.667-.1c-.7 0-1.3.3-1.733.9-.434.6-.667 1.467-.667 2.667V80.5h-6.633v-9.167a8.92 8.92 0 0 0-.1-1.4 3.848 3.848 0 0 0-.334-1.1c-.166-.333-.4-.6-.666-.766C37.6 67.9 37.2 67.8 36.8 67.8c-.767 0-1.367.3-1.833.9-.467.6-.7 1.467-.7 2.667V80.5H27.6V62.333h6.633V64.4h.034c.633-.8 1.366-1.4 2.2-1.833.833-.4 1.733-.634 2.666-.634 2.4 0 4.167.867 5.2 2.567h.067c1.433-1.7 3.4-2.567 5.867-2.567 4.333 0 6.5 2.634 6.5 7.9ZM76.433 73h-11.9c.134.834.567 1.5 1.234 1.933.666.434 1.533.667 2.533.667 1.5 0 2.9-.666 4.2-2l3.433 3.767c-.833 1.033-1.966 1.867-3.4 2.5-1.433.633-3.066.966-4.933.966-1.8 0-3.433-.4-4.867-1.2-1.433-.8-2.6-1.9-3.4-3.366-.833-1.467-1.233-3.1-1.233-4.933 0-1.8.4-3.434 1.2-4.867a8.604 8.604 0 0 1 3.367-3.367c1.433-.8 3.066-1.2 4.866-1.2 1.3 0 2.5.233 3.634.7 1.133.467 2.1 1.1 2.9 1.9.8.8 1.433 1.8 1.9 2.967.466 1.166.7 2.4.7 3.767-.067.7-.134 1.3-.234 1.766Zm-10.9-5.4c-.533.434-.866 1.034-1 1.8h5.634c-.067-.367-.2-.7-.367-1a2.788 2.788 0 0 0-.6-.767c-.233-.2-.5-.366-.8-.466-.3-.1-.633-.167-1-.167-.7-.033-1.333.2-1.867.6ZM89.833 61.934V69c-.366-.033-.833-.033-1.4-.033-1.233 0-2.166.333-2.8.966-.633.634-.966 1.5-.966 2.6v7.934h-6.634V62.3h6.634v2.467h.066A6.876 6.876 0 0 1 87 62.634c.867-.5 1.8-.734 2.8-.734h.033v.034ZM109.267 62.3v15.533c0 1.267-.1 2.4-.3 3.434a9.008 9.008 0 0 1-1.034 2.833c-.5.867-1.1 1.6-1.866 2.2-.767.6-1.7 1.067-2.867 1.4-1.167.333-2.467.5-3.967.5-1.566 0-2.933-.133-4.066-.367-1.134-.233-2.3-.666-3.467-1.3l1.467-5.2a9.47 9.47 0 0 0 2.466 1.034c1 .3 1.934.433 2.767.433 1.4 0 2.5-.267 3.267-.833.766-.567 1.166-1.267 1.166-2.1v-1.634h-.066c-1.167 1.267-2.767 1.9-4.8 1.9-1.567 0-2.967-.4-4.234-1.166-1.266-.767-2.2-1.834-2.9-3.2-.666-1.334-1.033-2.867-1.033-4.534 0-1.333.2-2.566.6-3.733a9.753 9.753 0 0 1 1.633-2.967c.667-.833 1.5-1.433 2.467-1.9.967-.466 2-.7 3.067-.7 2.033 0 3.7.7 4.966 2.167h.067v-1.767l6.667-.033Zm-7.234 11.067c.6-.6.9-1.367.9-2.334 0-.933-.3-1.7-.933-2.333-.633-.6-1.367-.9-2.267-.9-.9 0-1.666.3-2.3.9-.633.6-.933 1.4-.933 2.333 0 .967.3 1.734.933 2.334.634.6 1.367.9 2.3.9.934 0 1.667-.3 2.3-.9ZM129.067 73h-11.9c.133.834.567 1.5 1.233 1.933.667.434 1.534.667 2.534.667 1.5 0 2.9-.666 4.166-2l3.434 3.767c-.834 1.033-1.967 1.867-3.4 2.5-1.434.633-3.067.966-4.934.966-1.8 0-3.433-.4-4.866-1.2-1.434-.8-2.6-1.9-3.4-3.366-.834-1.467-1.234-3.1-1.234-4.933 0-1.8.4-3.434 1.2-4.867a8.608 8.608 0 0 1 3.367-3.367c1.433-.8 3.067-1.2 4.867-1.2 1.3 0 2.5.233 3.633.7 1.133.467 2.1 1.1 2.9 1.9.8.8 1.433 1.8 1.9 2.967.467 1.166.7 2.4.7 3.767-.033.7-.1 1.3-.2 1.766Zm-10.9-5.4c-.533.434-.867 1.034-1 1.8h5.667c-.067-.367-.2-.7-.367-1a2.8 2.8 0 0 0-.6-.767c-.233-.2-.5-.366-.8-.466a3.14 3.14 0 0 0-1-.167 2.883 2.883 0 0 0-1.9.6ZM144.267 62.067c.533.1 1.066.266 1.533.5.5.233.933.533 1.3.933s.7.867.967 1.4c.266.533.5 1.2.633 1.967.133.766.2 1.633.2 2.6v11h-6.633v-9.4c0-.834-.1-1.5-.267-2s-.433-.8-.767-1c-.333-.2-.766-.267-1.333-.267-.833 0-1.467.3-1.933.867-.467.6-.7 1.466-.7 2.666v9.134h-6.6V62.3h6.633v2h.033c.667-.767 1.434-1.367 2.334-1.767.9-.4 1.833-.6 2.833-.6.633 0 1.2.034 1.767.134ZM154.9 79.667c-1.466-.8-2.6-1.9-3.4-3.367-.833-1.433-1.233-3.067-1.233-4.933 0-1.834.433-3.5 1.267-4.934a8.608 8.608 0 0 1 3.533-3.366c1.533-.8 3.233-1.2 5.167-1.2 1.566 0 3.033.333 4.466.966a8.83 8.83 0 0 1 3.467 2.767l-4.4 3.733c-.933-1.1-2.033-1.633-3.367-1.633-1.033 0-1.866.333-2.5 1-.633.667-.966 1.5-.966 2.567 0 1.066.333 1.933 1 2.6.666.666 1.5 1 2.533 1 1.333 0 2.433-.5 3.267-1.467l4.5 3.933c-.834 1.034-1.967 1.867-3.434 2.5-1.466.634-3.133.967-5.033.967-1.8.033-3.433-.367-4.867-1.133ZM187.333 62.3 178 87.8h-6.433l3.066-8.667-6.966-16.833h6.833l3.067 8.6h.066l2.9-8.6h6.8Z" fill="#C126CE"/></svg>