<svg xmlns="http://www.w3.org/2000/svg" width="386" height="387" fill="none"><path fill="url(#a)" d="m377.435 168.741-26.25-30.496c-5.018-5.791-9.071-16.599-9.071-24.32V81.113c0-20.46-16.792-37.251-37.251-37.251h-32.812c-7.528 0-18.53-4.053-24.32-9.072L217.235 8.54c-13.318-11.387-35.128-11.387-48.639 0l-30.303 26.443c-5.791 4.826-16.792 8.879-24.32 8.879h-33.39c-20.46 0-37.252 16.792-37.252 37.251v33.005c0 7.528-4.053 18.336-8.878 24.127L8.396 168.934c-11.195 13.317-11.195 34.935 0 48.253l26.057 30.688c4.825 5.791 8.878 16.599 8.878 24.127v33.005c0 20.459 16.792 37.251 37.251 37.251h33.391c7.528 0 18.529 4.053 24.32 9.072l30.496 26.249c13.318 11.388 35.129 11.388 48.639 0l30.496-26.249c5.79-5.019 16.599-9.072 24.32-9.072h32.812c20.459 0 37.251-16.792 37.251-37.251v-32.812c0-7.528 4.053-18.529 9.071-24.32l26.25-30.495c11.195-13.318 11.195-35.322-.193-48.639Zm-104.226-12.16-93.225 93.224a14.458 14.458 0 0 1-10.23 4.247c-3.86 0-7.527-1.544-10.229-4.247l-46.71-46.708c-5.597-5.598-5.597-14.862 0-20.46 5.598-5.597 14.862-5.597 20.46 0l36.479 36.48 82.995-82.996c5.598-5.597 14.862-5.597 20.46 0 5.597 5.598 5.597 14.862 0 20.46Z"/><defs><linearGradient id="a" x1="193" x2="193" y1="0" y2="386.12" gradientUnits="userSpaceOnUse"><stop stop-color="#9FF199"/><stop offset="1" stop-color="#8BB692"/></linearGradient></defs></svg>