<svg xmlns="http://www.w3.org/2000/svg" data-name="Слой 1" viewBox="0 0 333.4 124.45"><defs><linearGradient id="a" x1="99.42" x2="36.58" y1="22.72" y2="85.56" gradientUnits="userSpaceOnUse"><stop offset="0" stop-color="#9379d5"/><stop offset="1" stop-color="#554fa8"/></linearGradient></defs><path d="m119 41.16 10-25.67h4.77l10 25.67h-5.43l-2.09-5.53h-10l-2.09 5.53Zm10.53-14L128 31.3h6.71l-1.58-4.18c-.15-.37-.32-.85-.51-1.45l-.62-1.93c-.24-.68-.44-1.33-.61-1.94-.29.9-.6 1.83-.92 2.79s-.64 1.82-.93 2.6ZM154.48 41.53a9.36 9.36 0 0 1-4.94-1.32 9.57 9.57 0 0 1-3.44-3.59 10.4 10.4 0 0 1-1.27-5.17 10.34 10.34 0 0 1 1.27-5.14 9.5 9.5 0 0 1 3.44-3.59 9.36 9.36 0 0 1 4.94-1.32 11.52 11.52 0 0 1 4.75 1 7.89 7.89 0 0 1 3.35 2.6l-2.75 3.3a6.3 6.3 0 0 0-2.13-1.82 5.61 5.61 0 0 0-2.75-.75 5 5 0 0 0-2.73.75 5.26 5.26 0 0 0-1.87 2 6.11 6.11 0 0 0-.68 2.9 5.89 5.89 0 0 0 .7 2.89 5.28 5.28 0 0 0 1.91 2 5 5 0 0 0 2.71.75 5.54 5.54 0 0 0 2.64-.64 7.35 7.35 0 0 0 2.2-1.82l2.75 3.3a8.64 8.64 0 0 1-3.45 2.59 11.33 11.33 0 0 1-4.65 1.08ZM173.22 41.53a7.6 7.6 0 0 1-4.37-1.32 9.46 9.46 0 0 1-3.1-3.59 11.27 11.27 0 0 1-1.15-5.17 11.29 11.29 0 0 1 1.15-5.23 9 9 0 0 1 3.16-3.54 8.15 8.15 0 0 1 4.53-1.28 7.49 7.49 0 0 1 3.59.82 6.87 6.87 0 0 1 2.46 2.15V21.8h5v19.36h-5v-2.6a8 8 0 0 1-2.66 2.13 7.7 7.7 0 0 1-3.61.84Zm1.35-4.36a4.63 4.63 0 0 0 3.64-1.58 6.06 6.06 0 0 0 1.39-4.14 6.07 6.07 0 0 0-1.39-4.15 4.63 4.63 0 0 0-3.64-1.58A4.53 4.53 0 0 0 171 27.3a6.06 6.06 0 0 0-1.38 4.15 6.05 6.05 0 0 0 1.38 4.14 4.53 4.53 0 0 0 3.57 1.58ZM197.35 41.53a8.28 8.28 0 0 1-4.59-1.3 9 9 0 0 1-3.17-3.58 11.24 11.24 0 0 1-1.15-5.17 11.38 11.38 0 0 1 1.15-5.21 9.08 9.08 0 0 1 3.17-3.57 8.28 8.28 0 0 1 4.59-1.3 8.42 8.42 0 0 1 3.36.69 7.53 7.53 0 0 1 2.58 1.8V14h5v27.16h-4.77l-.08-2.31a7.3 7.3 0 0 1-2.6 1.91 8.26 8.26 0 0 1-3.49.77Zm1.1-4.18a4.54 4.54 0 0 0 3.63-1.63 6.3 6.3 0 0 0 1.39-4.24 6.34 6.34 0 0 0-1.39-4.27 4.86 4.86 0 0 0-7.26 0 6.34 6.34 0 0 0-1.39 4.27 6.3 6.3 0 0 0 1.39 4.24 4.54 4.54 0 0 0 3.63 1.63ZM222.55 41.53a11.28 11.28 0 0 1-5.47-1.28 9.37 9.37 0 0 1-3.65-3.52 10 10 0 0 1-1.3-5.14 10.84 10.84 0 0 1 1.26-5.3 9.46 9.46 0 0 1 3.49-3.61 9.81 9.81 0 0 1 5.12-1.32 8.76 8.76 0 0 1 7.9 4.69A9.81 9.81 0 0 1 231 31v1.58h-14a5.17 5.17 0 0 0 2 3.3 6.48 6.48 0 0 0 4.05 1.21 6.79 6.79 0 0 0 2.4-.4 8.53 8.53 0 0 0 2.33-1.43l2.42 3.37a11.35 11.35 0 0 1-3.61 2.15 11.67 11.67 0 0 1-4.04.75ZM222 25.69c-2.76 0-4.42 1.24-5 3.74h9.17v-.15a3.57 3.57 0 0 0-1.3-2.58 4.26 4.26 0 0 0-2.87-1.01ZM234.83 41.16V21.8h4.84l.08 2.75a8.07 8.07 0 0 1 2.56-2.26 6.59 6.59 0 0 1 3.23-.86 6.33 6.33 0 0 1 3.49.9 6.5 6.5 0 0 1 2.27 2.84 8 8 0 0 1 6.64-3.74q6.63 0 6.64 8v11.73h-5V29.79c0-2.68-1.1-4-3.3-4a4.09 4.09 0 0 0-2.92 1.1 3.63 3.63 0 0 0-1.15 2.75v11.52h-5V29.72a4.51 4.51 0 0 0-.84-2.93 2.94 2.94 0 0 0-2.42-1 4 4 0 0 0-2.88 1.1 3.56 3.56 0 0 0-1.15 2.68v11.59ZM272.13 49.6l3.6-8.33-8.81-19.47h5.69l4.91 11.59q.33.77.66 1.8c.1-.27.19-.54.28-.79s.17-.53.27-.83L283 21.8h5.76l-8.14 19.36-3.34 8.44ZM133.17 75.63a13.08 13.08 0 0 1-6.66-1.63 12.16 12.16 0 0 1-4.57-4.68 14.07 14.07 0 0 1-1.65-6.91 13.19 13.19 0 0 1 3.8-9.39 12.57 12.57 0 0 1 4.18-2.79 13.48 13.48 0 0 1 5.19-1 12.71 12.71 0 0 1 5.3 1.15 11 11 0 0 1 4.09 3.1l-3.34 3.71a10.66 10.66 0 0 0-2.82-2.19 7.1 7.1 0 0 0-3.27-.77 7.44 7.44 0 0 0-6.67 3.91 8.62 8.62 0 0 0-1 4.27 9 9 0 0 0 1 4.35 7 7 0 0 0 2.86 2.86 8.83 8.83 0 0 0 4.27 1 8.05 8.05 0 0 0 3.38-.73A9.14 9.14 0 0 0 140 68l2.57 4.14a8.68 8.68 0 0 1-2.38 1.8 14.28 14.28 0 0 1-3.32 1.26 14.67 14.67 0 0 1-3.7.43ZM146.48 75.27V55.9h4.84l.08 3.19a7.83 7.83 0 0 1 2.51-2.58 5.88 5.88 0 0 1 3.28-1 7.9 7.9 0 0 1 1.23.09 5.09 5.09 0 0 1 1 .24L158 61.33a4.13 4.13 0 0 0-1-.37 5.91 5.91 0 0 0-1.25-.14 4.15 4.15 0 0 0-3 1.22 4.21 4.21 0 0 0-1.22 3.1v10.13ZM165.15 83.7l3.59-8.32-8.8-19.48h5.69l4.91 11.59q.33.77.66 1.8c.1-.27.19-.53.27-.79l.28-.83L176 55.9h5.76l-8.15 19.37-3.33 8.43ZM184.51 83.34V55.9h4.84l.08 2.35a7.26 7.26 0 0 1 2.6-2 8.19 8.19 0 0 1 3.49-.77 8.09 8.09 0 0 1 4.48 1.34 8.72 8.72 0 0 1 3.11 3.56 12.29 12.29 0 0 1 0 10.34 8.81 8.81 0 0 1-3.11 3.57 8.29 8.29 0 0 1-7.85.59 7.63 7.63 0 0 1-2.61-1.81v10.27Zm9.91-12.07a4.58 4.58 0 0 0 3.63-1.6 6.76 6.76 0 0 0 0-8.21 4.58 4.58 0 0 0-3.63-1.6 4.63 4.63 0 0 0-3.64 1.58 6 6 0 0 0-1.39 4.11 6 6 0 0 0 1.39 4.12 4.58 4.58 0 0 0 3.64 1.6ZM210.19 75.27V60.41h-3.67V55.9h3.67V51h5v4.9h4.07v4.51h-4.07v14.86ZM231.42 75.63a10.54 10.54 0 0 1-5.28-1.3 9.57 9.57 0 0 1-3.63-3.57 10.22 10.22 0 0 1-1.32-5.21 10.09 10.09 0 0 1 1.32-5.17 9.53 9.53 0 0 1 3.63-3.58 10.54 10.54 0 0 1 5.28-1.3 10.41 10.41 0 0 1 5.21 1.3 9.53 9.53 0 0 1 3.63 3.58 10.09 10.09 0 0 1 1.32 5.17 10.22 10.22 0 0 1-1.32 5.21 9.57 9.57 0 0 1-3.63 3.57 10.41 10.41 0 0 1-5.21 1.3Zm0-4.36a4.79 4.79 0 0 0 2.64-.75 5.07 5.07 0 0 0 1.82-2 6.54 6.54 0 0 0 .64-2.93 6.62 6.62 0 0 0-.64-2.94 5 5 0 0 0-1.82-2 4.86 4.86 0 0 0-2.64-.74 5 5 0 0 0-2.68.74 5.08 5.08 0 0 0-1.83 2 6.36 6.36 0 0 0-.66 2.94 6.29 6.29 0 0 0 .66 2.93 5.17 5.17 0 0 0 1.83 2 4.9 4.9 0 0 0 2.68.75ZM122 109.37V83.7h17.16v4.69h-12V94h10.2v4.55h-10.2v6.12h12.24v4.7ZM144.39 109.37V90h4.84l.07 2.75a8.18 8.18 0 0 1 2.57-2.25 6.46 6.46 0 0 1 3.23-.86 5.74 5.74 0 0 1 5.76 3.74 7.71 7.71 0 0 1 2.88-2.73 7.55 7.55 0 0 1 3.76-1q6.63 0 6.63 8v11.74h-5V98q0-4-3.3-4a4.09 4.09 0 0 0-2.92 1.1 3.67 3.67 0 0 0-1.15 2.76v11.55h-5V97.93a4.54 4.54 0 0 0-.84-2.94 3 3 0 0 0-2.42-1 4 4 0 0 0-2.88 1.1 3.58 3.58 0 0 0-1.16 2.68v11.63ZM188.25 109.74a11.16 11.16 0 0 1-5.46-1.29 9.23 9.23 0 0 1-3.65-3.52 10 10 0 0 1-1.3-5.13 10.79 10.79 0 0 1 1.26-5.3 9.49 9.49 0 0 1 3.49-3.62 9.8 9.8 0 0 1 5.11-1.32 8.8 8.8 0 0 1 7.91 4.7 9.76 9.76 0 0 1 1.08 4.95v1.58h-13.97a5.25 5.25 0 0 0 2 3.3 6.59 6.59 0 0 0 4.06 1.21 6.79 6.79 0 0 0 2.4-.41 8.06 8.06 0 0 0 2.33-1.43l2.42 3.38a11.33 11.33 0 0 1-3.61 2.14 11.7 11.7 0 0 1-4.07.76Zm-.51-15.85c-2.76 0-4.43 1.25-5 3.74h9.17v-.14a3.57 3.57 0 0 0-1.3-2.59 4.32 4.32 0 0 0-2.87-1.01ZM200.58 109.37V90h4.84l.07 3.19a7.93 7.93 0 0 1 2.51-2.58 6 6 0 0 1 3.29-1 7.9 7.9 0 0 1 1.23.09 5.28 5.28 0 0 1 1 .24l-1.36 5.5a4.5 4.5 0 0 0-1-.37 5.82 5.82 0 0 0-1.24-.14 4.12 4.12 0 0 0-3 1.23 4.2 4.2 0 0 0-1.23 3.1v10.12ZM224.71 117.8a15.27 15.27 0 0 1-4.46-.67 11.57 11.57 0 0 1-3.61-1.75l1.76-3.63a8.94 8.94 0 0 0 2.7 1.32 10.69 10.69 0 0 0 3.17.48q5.68 0 5.68-5.36v-1.5a7 7 0 0 1-2.54 2 7.76 7.76 0 0 1-3.43.79 9.16 9.16 0 0 1-4.79-1.26 9.06 9.06 0 0 1-3.32-3.49 10.4 10.4 0 0 1-1.21-5.08 11 11 0 0 1 1.19-5.17 9.1 9.1 0 0 1 3.28-3.56 8.87 8.87 0 0 1 4.7-1.28 8.26 8.26 0 0 1 3.61.79 8.13 8.13 0 0 1 2.66 1.89l.07-2.28H235v17.94c0 3.15-.91 5.59-2.73 7.3a10.58 10.58 0 0 1-7.56 2.52Zm.15-12.47a5 5 0 0 0 3.83-1.57 6.59 6.59 0 0 0 0-8.27 4.92 4.92 0 0 0-3.81-1.6 4.8 4.8 0 0 0-3.76 1.62 5.92 5.92 0 0 0-1.45 4.14 5.81 5.81 0 0 0 1.45 4.11 4.86 4.86 0 0 0 3.74 1.57ZM249.32 109.74a11.2 11.2 0 0 1-5.47-1.29 9.2 9.2 0 0 1-3.64-3.52 10 10 0 0 1-1.31-5.13 10.79 10.79 0 0 1 1.27-5.3 9.39 9.39 0 0 1 3.48-3.62 9.83 9.83 0 0 1 5.12-1.32 8.88 8.88 0 0 1 4.68 1.27 8.79 8.79 0 0 1 3.22 3.43 9.76 9.76 0 0 1 1.08 4.95v1.58h-13.97a5.27 5.27 0 0 0 2 3.3 6.54 6.54 0 0 0 4.05 1.21 6.79 6.79 0 0 0 2.4-.41 7.93 7.93 0 0 0 2.33-1.43l2.42 3.38a11.22 11.22 0 0 1-3.61 2.14 11.69 11.69 0 0 1-4.05.76Zm-.51-15.85q-4.16 0-5 3.74H253v-.14a3.58 3.58 0 0 0-1.31-2.59 4.3 4.3 0 0 0-2.88-1.01ZM261.64 109.37V90h4.84l.08 2.61a7.59 7.59 0 0 1 2.64-2.17 7.51 7.51 0 0 1 3.45-.84q6.66 0 6.67 7.92v11.85h-5V97.89c0-2.76-1.16-4.1-3.48-4a4.24 4.24 0 0 0-3 1.1 3.54 3.54 0 0 0-1.19 2.72v11.66ZM292.71 109.74a9.37 9.37 0 0 1-4.94-1.33 9.5 9.5 0 0 1-3.44-3.59 11.1 11.1 0 0 1 0-10.31 9.57 9.57 0 0 1 3.44-3.59 9.36 9.36 0 0 1 4.94-1.32 11.68 11.68 0 0 1 4.75 1 7.89 7.89 0 0 1 3.35 2.68l-2.75 3.3a6.28 6.28 0 0 0-2.13-1.81 5.63 5.63 0 0 0-2.75-.76 5.05 5.05 0 0 0-2.73.76 5.3 5.3 0 0 0-1.87 2 6.14 6.14 0 0 0-.68 2.9 5.93 5.93 0 0 0 .7 2.9 5.33 5.33 0 0 0 1.91 2 5 5 0 0 0 2.71.75 5.54 5.54 0 0 0 2.64-.64 7.46 7.46 0 0 0 2.2-1.81l2.75 3.3a8.62 8.62 0 0 1-3.45 2.58 11.34 11.34 0 0 1-4.65.99ZM306.39 117.8l3.59-8.32-8.8-19.48h5.68l4.92 11.59q.33.78.66 1.8c.09-.27.19-.53.27-.79s.18-.53.28-.82L317.21 90H323l-8.14 19.37-3.34 8.43Z"/><path d="M106.62 21.3v88.07H75.34V46.8H12.76V15.51h88.07a5.79 5.79 0 0 1 5.79 5.79Zm-93.86 43v13.79h31.29v31.28h15.64V62.44H12.76Z" style="fill:url(#a)"/><path d="M75.34 15.51h31.29V46.8H75.34z" style="fill:#baedb2"/></svg>