<svg width="334" height="125" fill="none" xmlns="http://www.w3.org/2000/svg"><path d="m119 41.16 10-25.67h4.77l10 25.67h-5.43l-2.09-5.53h-10l-2.09 5.53H119Zm10.53-14L128 31.3h6.71l-1.58-4.18c-.15-.37-.32-.85-.51-1.45l-.62-1.93c-.24-.68-.44-1.33-.61-1.94-.29.9-.6 1.83-.92 2.79-.32.96-.64 1.82-.93 2.6l-.01-.03ZM154.48 41.53a9.361 9.361 0 0 1-4.94-1.32 9.567 9.567 0 0 1-3.44-3.59 10.401 10.401 0 0 1-1.27-5.17 10.342 10.342 0 0 1 1.27-5.14 9.502 9.502 0 0 1 3.44-3.59 9.36 9.36 0 0 1 4.94-1.32 11.52 11.52 0 0 1 4.75 1 7.886 7.886 0 0 1 3.35 2.6l-2.75 3.3a6.292 6.292 0 0 0-2.13-1.82 5.61 5.61 0 0 0-2.75-.75 5 5 0 0 0-2.73.75 5.26 5.26 0 0 0-1.87 2 6.115 6.115 0 0 0-.68 2.9 5.883 5.883 0 0 0 .7 2.89 5.284 5.284 0 0 0 1.91 2 5 5 0 0 0 2.71.75c.92.009 1.827-.211 2.64-.64a7.35 7.35 0 0 0 2.2-1.82l2.75 3.3a8.634 8.634 0 0 1-3.45 2.59 11.333 11.333 0 0 1-4.65 1.08ZM173.22 41.53a7.6 7.6 0 0 1-4.37-1.32 9.458 9.458 0 0 1-3.1-3.59 11.262 11.262 0 0 1-1.15-5.17 11.288 11.288 0 0 1 1.15-5.23 9.002 9.002 0 0 1 3.16-3.54 8.15 8.15 0 0 1 4.53-1.28 7.491 7.491 0 0 1 3.59.82 6.868 6.868 0 0 1 2.46 2.15V21.8h5v19.36h-5v-2.6a8 8 0 0 1-2.66 2.13 7.7 7.7 0 0 1-3.61.84Zm1.35-4.36a4.63 4.63 0 0 0 3.64-1.58 6.06 6.06 0 0 0 1.39-4.14 6.07 6.07 0 0 0-1.39-4.15 4.636 4.636 0 0 0-3.64-1.58A4.531 4.531 0 0 0 171 27.3a6.056 6.056 0 0 0-1.38 4.15 6.05 6.05 0 0 0 1.38 4.14 4.53 4.53 0 0 0 3.57 1.58ZM197.35 41.53a8.28 8.28 0 0 1-4.59-1.3 9.005 9.005 0 0 1-3.17-3.58 11.235 11.235 0 0 1-1.15-5.17 11.376 11.376 0 0 1 1.15-5.21 9.079 9.079 0 0 1 3.17-3.57 8.28 8.28 0 0 1 4.59-1.3 8.419 8.419 0 0 1 3.36.69 7.534 7.534 0 0 1 2.58 1.8V14h5v27.16h-4.77l-.08-2.31a7.3 7.3 0 0 1-2.6 1.91 8.258 8.258 0 0 1-3.49.77Zm1.1-4.18a4.54 4.54 0 0 0 3.63-1.63 6.297 6.297 0 0 0 1.39-4.24 6.34 6.34 0 0 0-1.39-4.27 4.858 4.858 0 0 0-7.26 0 6.34 6.34 0 0 0-1.39 4.27 6.303 6.303 0 0 0 1.39 4.24 4.543 4.543 0 0 0 3.63 1.63ZM222.55 41.53a11.28 11.28 0 0 1-5.47-1.28 9.37 9.37 0 0 1-3.65-3.52 10 10 0 0 1-1.3-5.14 10.843 10.843 0 0 1 1.26-5.3 9.462 9.462 0 0 1 3.49-3.61 9.812 9.812 0 0 1 5.12-1.32 8.759 8.759 0 0 1 7.9 4.69A9.816 9.816 0 0 1 231 31v1.58h-14a5.17 5.17 0 0 0 2 3.3 6.481 6.481 0 0 0 4.05 1.21 6.79 6.79 0 0 0 2.4-.4 8.542 8.542 0 0 0 2.33-1.43l2.42 3.37a11.347 11.347 0 0 1-3.61 2.15c-1.292.487-2.66.741-4.04.75ZM222 25.69c-2.76 0-4.42 1.24-5 3.74h9.17v-.15a3.58 3.58 0 0 0-1.3-2.58 4.26 4.26 0 0 0-2.87-1.01ZM234.83 41.16V21.8h4.84l.08 2.75a8.062 8.062 0 0 1 2.56-2.26 6.59 6.59 0 0 1 3.23-.86 6.328 6.328 0 0 1 3.49.9 6.501 6.501 0 0 1 2.27 2.84 8 8 0 0 1 6.64-3.74c4.42 0 6.633 2.667 6.64 8v11.73h-5V29.79c0-2.68-1.1-4-3.3-4a4.09 4.09 0 0 0-2.92 1.1 3.63 3.63 0 0 0-1.15 2.75v11.52h-5V29.72a4.504 4.504 0 0 0-.84-2.93 2.947 2.947 0 0 0-2.42-1 3.997 3.997 0 0 0-2.88 1.1 3.557 3.557 0 0 0-1.15 2.68v11.59h-5.09ZM272.13 49.6l3.6-8.33-8.81-19.47h5.69l4.91 11.59c.22.513.44 1.113.66 1.8.1-.27.19-.54.28-.79.09-.25.17-.53.27-.83L283 21.8h5.76l-8.14 19.36-3.34 8.44h-5.15ZM133.17 75.63a13.077 13.077 0 0 1-6.66-1.63 12.159 12.159 0 0 1-4.57-4.68 14.072 14.072 0 0 1-1.65-6.91 13.186 13.186 0 0 1 3.8-9.39 12.567 12.567 0 0 1 4.18-2.79 13.481 13.481 0 0 1 5.19-1c1.829-.003 3.637.39 5.3 1.15a11 11 0 0 1 4.09 3.1l-3.34 3.71a10.666 10.666 0 0 0-2.82-2.19 7.101 7.101 0 0 0-3.27-.77 7.44 7.44 0 0 0-6.67 3.91 8.623 8.623 0 0 0-1 4.27 9.006 9.006 0 0 0 1 4.35 6.999 6.999 0 0 0 2.86 2.86 8.83 8.83 0 0 0 4.27 1 8.052 8.052 0 0 0 3.38-.73A9.145 9.145 0 0 0 140 68l2.57 4.14a8.692 8.692 0 0 1-2.38 1.8c-1.05.556-2.165.98-3.32 1.26-1.21.3-2.453.444-3.7.43ZM146.48 75.27V55.9h4.84l.08 3.19a7.827 7.827 0 0 1 2.51-2.58c.97-.652 2.112-1 3.28-1 .412-.002.823.028 1.23.09a5.07 5.07 0 0 1 1 .24L158 61.33a4.126 4.126 0 0 0-1-.37 5.913 5.913 0 0 0-1.25-.14 4.15 4.15 0 0 0-3.93 2.644 4.227 4.227 0 0 0-.29 1.676v10.13h-5.05ZM165.15 83.7l3.59-8.32-8.8-19.48h5.69l4.91 11.59c.22.514.44 1.114.66 1.8.1-.27.19-.53.27-.79l.28-.83L176 55.9h5.76l-8.15 19.37-3.33 8.43h-5.13ZM184.51 83.34V55.9h4.84l.08 2.35a7.261 7.261 0 0 1 2.6-2 8.189 8.189 0 0 1 3.49-.77 8.09 8.09 0 0 1 4.48 1.34 8.717 8.717 0 0 1 3.11 3.56 12.293 12.293 0 0 1 0 10.34 8.806 8.806 0 0 1-3.11 3.57 8.287 8.287 0 0 1-7.85.59 7.628 7.628 0 0 1-2.61-1.81v10.27h-5.03Zm9.91-12.07a4.578 4.578 0 0 0 3.63-1.6 6.76 6.76 0 0 0 0-8.21 4.573 4.573 0 0 0-3.63-1.6 4.632 4.632 0 0 0-3.64 1.58 5.997 5.997 0 0 0-1.39 4.11 6.001 6.001 0 0 0 1.39 4.12 4.576 4.576 0 0 0 3.64 1.6ZM210.19 75.27V60.41h-3.67V55.9h3.67V51h5v4.9h4.07v4.51h-4.07v14.86h-5ZM231.42 75.63a10.541 10.541 0 0 1-5.28-1.3 9.575 9.575 0 0 1-3.63-3.57 10.217 10.217 0 0 1-1.32-5.21 10.088 10.088 0 0 1 1.32-5.17 9.532 9.532 0 0 1 3.63-3.58 10.542 10.542 0 0 1 5.28-1.3 10.41 10.41 0 0 1 5.21 1.3 9.525 9.525 0 0 1 3.63 3.58 10.088 10.088 0 0 1 1.32 5.17 10.217 10.217 0 0 1-1.32 5.21 9.568 9.568 0 0 1-3.63 3.57 10.409 10.409 0 0 1-5.21 1.3Zm0-4.36a4.79 4.79 0 0 0 2.64-.75 5.063 5.063 0 0 0 1.82-2 6.525 6.525 0 0 0 .64-2.93 6.624 6.624 0 0 0-.64-2.94 4.995 4.995 0 0 0-1.82-2 4.86 4.86 0 0 0-2.64-.74 5.003 5.003 0 0 0-2.68.74 5.081 5.081 0 0 0-1.83 2 6.36 6.36 0 0 0-.66 2.94 6.292 6.292 0 0 0 .66 2.93 5.168 5.168 0 0 0 1.83 2 4.9 4.9 0 0 0 2.68.75ZM122 109.37V83.7h17.16v4.69h-12V94h10.2v4.55h-10.2v6.12h12.24v4.7H122ZM144.39 109.37V90h4.84l.07 2.75a8.176 8.176 0 0 1 2.57-2.25 6.456 6.456 0 0 1 3.23-.86 5.74 5.74 0 0 1 5.76 3.74 7.705 7.705 0 0 1 2.88-2.73 7.549 7.549 0 0 1 3.76-1c4.42 0 6.63 2.667 6.63 8v11.74h-5V98c0-2.666-1.1-4-3.3-4a4.09 4.09 0 0 0-2.92 1.1 3.665 3.665 0 0 0-1.15 2.76v11.55h-5V97.93a4.545 4.545 0 0 0-.84-2.94 3.004 3.004 0 0 0-2.42-1 3.997 3.997 0 0 0-2.88 1.1 3.58 3.58 0 0 0-1.16 2.68v11.63l-5.07-.03ZM188.25 109.74a11.18 11.18 0 0 1-5.46-1.29 9.235 9.235 0 0 1-3.65-3.52 10.008 10.008 0 0 1-1.3-5.13c-.04-1.846.394-3.67 1.26-5.3a9.49 9.49 0 0 1 3.49-3.62 9.802 9.802 0 0 1 5.11-1.32 8.799 8.799 0 0 1 7.91 4.7 9.764 9.764 0 0 1 1.08 4.95v1.58h-13.97a5.255 5.255 0 0 0 2 3.3 6.593 6.593 0 0 0 4.06 1.21 6.796 6.796 0 0 0 2.4-.41 8.101 8.101 0 0 0 2.33-1.43l2.42 3.38a11.365 11.365 0 0 1-3.61 2.14c-1.301.493-2.679.75-4.07.76Zm-.51-15.85c-2.76 0-4.43 1.25-5 3.74h9.17v-.14a3.575 3.575 0 0 0-1.3-2.59 4.322 4.322 0 0 0-2.87-1.01ZM200.58 109.37V90h4.84l.07 3.19a7.934 7.934 0 0 1 2.51-2.58 6 6 0 0 1 3.29-1c.412-.002.823.028 1.23.09.34.048.675.128 1 .24l-1.36 5.5a4.48 4.48 0 0 0-1-.37 5.813 5.813 0 0 0-1.24-.14 4.12 4.12 0 0 0-3 1.23 4.204 4.204 0 0 0-1.23 3.1v10.12l-5.11-.01ZM224.71 117.8a15.25 15.25 0 0 1-4.46-.67 11.555 11.555 0 0 1-3.61-1.75l1.76-3.63a8.91 8.91 0 0 0 2.7 1.32 10.65 10.65 0 0 0 3.17.48c3.787 0 5.68-1.786 5.68-5.36v-1.5a6.994 6.994 0 0 1-2.54 2 7.752 7.752 0 0 1-3.43.79 9.158 9.158 0 0 1-4.79-1.26 9.053 9.053 0 0 1-3.32-3.49 10.4 10.4 0 0 1-1.21-5.08 11.007 11.007 0 0 1 1.19-5.17 9.099 9.099 0 0 1 3.28-3.56 8.873 8.873 0 0 1 4.7-1.28 8.257 8.257 0 0 1 3.61.79 8.135 8.135 0 0 1 2.66 1.89l.07-2.28H235v17.94c0 3.15-.91 5.59-2.73 7.3a10.574 10.574 0 0 1-7.56 2.52Zm.15-12.47a4.995 4.995 0 0 0 3.83-1.57 6.588 6.588 0 0 0 0-8.27 4.92 4.92 0 0 0-3.81-1.6 4.8 4.8 0 0 0-3.76 1.62 5.917 5.917 0 0 0-1.45 4.14 5.811 5.811 0 0 0 1.45 4.11 4.863 4.863 0 0 0 3.74 1.57ZM249.32 109.74a11.22 11.22 0 0 1-5.47-1.29 9.203 9.203 0 0 1-3.64-3.52 10.002 10.002 0 0 1-1.31-5.13 10.79 10.79 0 0 1 1.27-5.3 9.392 9.392 0 0 1 3.48-3.62 9.83 9.83 0 0 1 5.12-1.32 8.88 8.88 0 0 1 4.68 1.27 8.792 8.792 0 0 1 3.22 3.43 9.765 9.765 0 0 1 1.08 4.95v1.58h-13.97a5.27 5.27 0 0 0 2 3.3 6.543 6.543 0 0 0 4.05 1.21 6.796 6.796 0 0 0 2.4-.41 7.954 7.954 0 0 0 2.33-1.43l2.42 3.38a11.224 11.224 0 0 1-3.61 2.14 11.705 11.705 0 0 1-4.05.76Zm-.51-15.85c-2.773 0-4.44 1.246-5 3.74H253v-.14a3.583 3.583 0 0 0-1.31-2.59 4.3 4.3 0 0 0-2.88-1.01ZM261.64 109.37V90h4.84l.08 2.61a7.599 7.599 0 0 1 2.64-2.17 7.511 7.511 0 0 1 3.45-.84c4.44 0 6.663 2.64 6.67 7.92v11.85h-5V97.89c0-2.76-1.16-4.1-3.48-4a4.24 4.24 0 0 0-3 1.1c-.383.34-.688.76-.894 1.229-.205.47-.306.978-.296 1.49v11.661h-5.01ZM292.71 109.74a9.374 9.374 0 0 1-4.94-1.33 9.502 9.502 0 0 1-3.44-3.59 11.101 11.101 0 0 1 0-10.31 9.567 9.567 0 0 1 3.44-3.59 9.36 9.36 0 0 1 4.94-1.32 11.68 11.68 0 0 1 4.75 1 7.89 7.89 0 0 1 3.35 2.68l-2.75 3.3a6.279 6.279 0 0 0-2.13-1.81 5.628 5.628 0 0 0-2.75-.76 5.05 5.05 0 0 0-2.73.76 5.294 5.294 0 0 0-1.87 2 6.14 6.14 0 0 0-.68 2.9 5.923 5.923 0 0 0 .7 2.9 5.33 5.33 0 0 0 1.91 2 5.003 5.003 0 0 0 2.71.75 5.543 5.543 0 0 0 2.64-.64 7.464 7.464 0 0 0 2.2-1.81l2.75 3.3a8.618 8.618 0 0 1-3.45 2.58 11.345 11.345 0 0 1-4.65.99ZM306.39 117.8l3.59-8.32-8.8-19.48h5.68l4.92 11.59c.22.52.44 1.12.66 1.8.09-.27.19-.53.27-.79.08-.26.18-.53.28-.82L317.21 90H323l-8.14 19.37-3.34 8.43h-5.13Z" fill="#fff"/><path d="M106.62 21.3v88.07H75.34V46.8H12.76V15.51h88.07a5.794 5.794 0 0 1 5.349 3.574 5.79 5.79 0 0 1 .441 2.216Zm-93.86 43v13.79h31.29v31.28h15.64V62.44H12.76v1.86Z" fill="url(#a)"/><path d="M106.63 15.51H75.34V46.8h31.29V15.51Z" fill="#BAEDB2"/><defs><linearGradient id="a" x1="99.42" y1="22.72" x2="36.58" y2="85.56" gradientUnits="userSpaceOnUse"><stop stop-color="#9379D5"/><stop offset="1" stop-color="#554FA8"/></linearGradient></defs></svg>