<svg xmlns="http://www.w3.org/2000/svg" width="28" height="28" fill="none"><path fill="#fff" fill-rule="evenodd" d="m23.744 12.274-2.002 6.008c-1.412 4.236-2.118 6.354-3.154 6.955a3.17 3.17 0 0 1-3.185 0c-1.036-.601-1.742-2.72-3.154-6.955-.226-.68-.34-1.02-.53-1.304a2.534 2.534 0 0 0-.696-.697c-.285-.19-.625-.304-1.305-.53-4.236-1.412-6.353-2.118-6.955-3.153a3.17 3.17 0 0 1 0-3.186c.602-1.036 2.72-1.742 6.955-3.153l6.008-2.003c5.248-1.75 7.872-2.624 9.257-1.239 1.385 1.385.51 4.01-1.239 9.257Zm-8.524.445a.875.875 0 0 1 .007-1.237l4.912-4.858a.875.875 0 1 1 1.23 1.244l-4.912 4.858a.875.875 0 0 1-1.237-.007Z" clip-rule="evenodd"/></svg>