<svg width="29" height="28" viewBox="0 0 29 28" fill="none" xmlns="http://www.w3.org/2000/svg">
<path d="M29 19.866C29 24.962 25.8535 28 20.5755 28H18.85C18.0525 28 17.4 27.37 17.4 26.6V18.522C17.4 18.144 17.719 17.822 18.1105 17.822L20.6625 17.78C20.8655 17.766 21.0395 17.626 21.083 17.43L21.5905 14.756C21.634 14.504 21.431 14.266 21.1555 14.266L18.067 14.308C17.661 14.308 17.342 14 17.3275 13.622L17.2695 10.192C17.2695 9.968 17.458 9.77201 17.7045 9.77201L21.1845 9.716C21.431 9.716 21.6195 9.53401 21.6195 9.29601L21.5615 5.93599C21.5615 5.69799 21.373 5.516 21.1265 5.516L17.2115 5.57201C14.8045 5.61401 12.8905 7.518 12.934 9.842L13.0065 13.692C13.021 14.084 12.702 14.392 12.296 14.406L10.556 14.434C10.3095 14.434 10.121 14.616 10.121 14.854L10.1645 17.514C10.1645 17.752 10.353 17.934 10.5995 17.934L12.3395 17.906C12.7455 17.906 13.0645 18.214 13.079 18.592L13.2095 26.572C13.224 27.356 12.5715 28 11.7595 28H8.4245C3.1465 28 0 24.962 0 19.852V8.134C0 3.038 3.1465 0 8.4245 0H20.5755C25.8535 0 29 3.038 29 8.134V19.866Z" fill="#EFF2F5"/>
</svg>
