<svg width="30" height="30" viewBox="0 0 30 30" fill="none" xmlns="http://www.w3.org/2000/svg">
<path d="M15 29C22.7319 29 29 22.7319 29 15C29 7.26801 22.7319 1 15 1C7.26801 1 1 7.26801 1 15C1 22.7319 7.26801 29 15 29Z" stroke="#EFF2F5" stroke-width="2" stroke-linecap="round" stroke-linejoin="round"/>
<path d="M9.40006 2.3999H10.8001C8.07006 10.5759 8.07006 19.4239 10.8001 27.5999H9.40006" stroke="#EFF2F5" stroke-width="2" stroke-linecap="round" stroke-linejoin="round"/>
<path d="M19.2001 2.3999C21.9301 10.5759 21.9301 19.4239 19.2001 27.5999" stroke="#EFF2F5" stroke-width="2" stroke-linecap="round" stroke-linejoin="round"/>
<path d="M2.40002 20.6002V19.2002C10.576 21.9302 19.424 21.9302 27.6 19.2002V20.6002" stroke="#EFF2F5" stroke-width="2" stroke-linecap="round" stroke-linejoin="round"/>
<path d="M2.40002 10.8009C10.576 8.07092 19.424 8.07092 27.6 10.8009" stroke="#EFF2F5" stroke-width="2" stroke-linecap="round" stroke-linejoin="round"/>
</svg>
