<svg width="28" height="21" viewBox="0 0 28 21" fill="none" xmlns="http://www.w3.org/2000/svg">
<path d="M28 2.51594C26.9477 2.93655 25.8348 3.21459 24.696 3.34143C25.8974 2.68016 26.7978 1.63987 27.23 0.41352C26.101 1.03272 24.8651 1.46898 23.576 1.70335C22.7144 0.842481 21.567 0.269441 20.3137 0.0741029C19.0605 -0.121235 17.7724 0.0721772 16.6513 0.624006C15.5303 1.17584 14.6397 2.05487 14.1193 3.12324C13.599 4.19161 13.4782 5.38889 13.776 6.52731C11.4932 6.42093 9.26022 5.87331 7.22212 4.92C5.18402 3.9667 3.38638 2.62905 1.946 0.993942C1.44079 1.80675 1.17533 2.72724 1.176 3.66389C1.17421 4.53373 1.4059 5.39048 1.85046 6.15786C2.29501 6.92524 2.93863 7.57944 3.724 8.06221C2.81117 8.03932 1.91784 7.81366 1.12 7.40439V7.46889C1.12684 8.68763 1.59039 9.8668 2.43224 10.8069C3.27409 11.747 4.44256 12.3904 5.74 12.6282C5.24056 12.7682 4.72202 12.8421 4.2 12.8475C3.83865 12.8436 3.47819 12.8134 3.122 12.7572C3.49147 13.8056 4.20647 14.7218 5.1675 15.3783C6.12854 16.0349 7.28781 16.3991 8.484 16.4203C6.46408 17.8846 3.97024 18.6838 1.4 18.6904C0.932029 18.6918 0.46443 18.666 0 18.613C2.6242 20.174 5.68234 21.0027 8.806 20.9992C10.9616 21.0198 13.1 20.6445 15.0964 19.8952C17.0927 19.1459 18.907 18.0376 20.4333 16.6351C21.9595 15.2325 23.1671 13.5638 23.9856 11.7265C24.804 9.88915 25.2169 7.91997 25.2 5.93399C25.2 5.71472 25.2 5.48255 25.2 5.25038C26.2986 4.49558 27.2461 3.57028 28 2.51594Z" fill="#EFF2F5"/>
</svg>
