<svg width="18" height="17" viewBox="0 0 18 17" fill="none" xmlns="http://www.w3.org/2000/svg">
<path d="M17 2.60607V12.2621C17 13.0301 16.376 13.75 15.608 13.846L15.344 13.8781C13.6 14.1101 10.912 14.998 9.376 15.846C9.168 15.966 8.824 15.966 8.608 15.846L8.576 15.8301C7.03998 14.9901 4.36002 14.1101 2.62402 13.8781L2.39199 13.846C1.62399 13.75 1 13.0301 1 12.2621V2.59807C1 1.64607 1.77598 0.926073 2.72798 1.00607C4.40798 1.14207 6.95198 1.9901 8.376 2.8781L8.576 2.99807C8.808 3.14207 9.192 3.14207 9.424 2.99807L9.56 2.91008C10.064 2.59808 10.704 2.28607 11.4 2.00607V5.27009L13 4.20607L14.6 5.27009V1.09411C14.816 1.05411 15.024 1.03008 15.216 1.01408H15.264C16.216 0.934081 17 1.64607 17 2.60607Z" stroke="#9E79DE" stroke-linecap="round" stroke-linejoin="round"/>
<path d="M8.99995 3.2627V15.2627" stroke="#9E79DE" stroke-linecap="round" stroke-linejoin="round"/>
<path d="M14.5998 1.09473V5.2707L12.9998 4.20669L11.3998 5.2707V2.00669C12.4478 1.59069 13.6158 1.25473 14.5998 1.09473Z" stroke="#9E79DE" stroke-linecap="round" stroke-linejoin="round"/>
</svg>
