<svg width="16" height="16" viewBox="0 0 16 16" fill="none" xmlns="http://www.w3.org/2000/svg">
<path d="M12.3663 15.3439C12.1355 15.3439 11.9047 15.2843 11.6962 15.1578L8.71082 13.3858C8.39814 13.3784 8.08545 13.3561 7.78766 13.3114C7.58665 13.2817 7.41542 13.1476 7.34097 12.954C7.26652 12.7604 7.30374 12.552 7.43775 12.3957C7.92911 11.8224 8.18224 11.1375 8.18224 10.4079C8.18224 8.60621 6.59648 7.13957 4.64591 7.13957C3.91631 7.13957 3.21649 7.34066 2.62835 7.72779C2.46456 7.83202 2.26355 7.84691 2.08487 7.76502C1.91364 7.68312 1.78708 7.51926 1.76475 7.3257C1.74241 7.11724 1.72752 6.90886 1.72752 6.69296C1.72752 3.00027 4.92882 0 8.85972 0C12.7906 0 15.9919 3.00027 15.9919 6.69296C15.9919 8.71796 15.0538 10.5791 13.4011 11.8522L13.6542 13.8773C13.7138 14.3835 13.4904 14.86 13.0661 15.1354C12.8576 15.2694 12.6119 15.3439 12.3663 15.3439ZM8.85228 12.2616C8.9565 12.2542 9.06073 12.2841 9.15007 12.3436L12.2695 14.1974C12.3514 14.2495 12.4184 14.2272 12.463 14.1974C12.5003 14.175 12.5598 14.1155 12.5449 14.0113L12.2546 11.6586C12.2322 11.4502 12.3216 11.2492 12.4854 11.1301C14.0041 10.0655 14.8752 8.44243 14.8752 6.67799C14.8752 3.60329 12.1801 1.10183 8.85972 1.10183C5.66586 1.10183 3.04526 3.42465 2.85169 6.34304C3.41006 6.12714 4.0131 6.00801 4.63847 6.00801C7.20696 6.00801 9.29152 7.9734 9.29152 10.393C9.29897 11.0481 9.14263 11.6809 8.85228 12.2616Z" fill="#9E79DE"/>
<path d="M2.4717 15.9997C2.27813 15.9997 2.09201 15.9475 1.92078 15.8359C1.58576 15.62 1.40709 15.2477 1.45176 14.8531L1.60065 13.7066C0.595589 12.8877 0 11.6742 0 10.4011C0 8.94936 0.759384 7.5944 2.03246 6.7829C2.79928 6.28411 3.70754 6.01611 4.65304 6.01611C7.22154 6.01611 9.30611 7.98153 9.30611 10.4011C9.30611 11.3838 8.94875 12.3517 8.2936 13.1185C7.45233 14.1384 6.19413 14.734 4.80938 14.7787L2.99284 15.8582C2.82905 15.955 2.65037 15.9997 2.4717 15.9997ZM4.6456 7.13281C3.916 7.13281 3.21618 7.33382 2.62803 7.72096C1.67509 8.33144 1.10929 9.32905 1.10929 10.4011C1.10929 11.4359 1.61554 12.3814 2.50893 12.9919C2.68016 13.111 2.76949 13.3121 2.74716 13.5205L2.58337 14.7936L4.36269 13.7364C4.45203 13.6843 4.54881 13.6545 4.6456 13.6545C5.73999 13.6545 6.77485 13.1855 7.43 12.3889C7.92136 11.8082 8.18193 11.1233 8.18193 10.3937C8.18193 8.59945 6.59617 7.13281 4.6456 7.13281Z" fill="#9E79DE"/>
</svg>
