<svg width="16" height="17" viewBox="0 0 16 17" fill="none" xmlns="http://www.w3.org/2000/svg">
<path d="M15.3846 16.4031H0.615385C0.278974 16.4031 0 16.1242 0 15.7877C0 15.4513 0.278974 15.1724 0.615385 15.1724H15.3846C15.721 15.1724 16 15.4513 16 15.7877C16 16.1242 15.721 16.4031 15.3846 16.4031Z" fill="#9E79DE"/>
<path d="M13.7601 1.20928C12.1683 -0.382515 10.6093 -0.423541 8.97649 1.20928L7.98367 2.2021C7.90162 2.28415 7.8688 2.41543 7.90162 2.53031C8.52521 4.70466 10.2647 6.44415 12.4391 7.06772C12.4719 7.07593 12.5047 7.08413 12.5375 7.08413C12.6278 7.08413 12.7098 7.05131 12.7755 6.98567L13.7601 5.99287C14.5724 5.18877 14.9662 4.40928 14.9662 3.62159C14.9744 2.80928 14.5806 2.02159 13.7601 1.20928Z" fill="#9E79DE"/>
<path d="M10.9622 7.81357C10.7243 7.6987 10.4945 7.58383 10.273 7.45255C10.0925 7.34588 9.92015 7.23101 9.74784 7.10793C9.60835 7.01768 9.44425 6.88639 9.28835 6.75511C9.27194 6.74691 9.21451 6.69768 9.14887 6.63204C8.8781 6.40227 8.57451 6.10689 8.30374 5.77869C8.27912 5.76227 8.2381 5.70484 8.18066 5.63099C8.09861 5.53253 7.95912 5.36843 7.83605 5.17971C7.73758 5.05663 7.62271 4.87612 7.51605 4.69561C7.38476 4.47407 7.26989 4.25253 7.15502 4.02279C7.13763 3.98554 7.1208 3.94848 7.10456 3.91164C6.98345 3.63815 6.62677 3.55819 6.41533 3.76968L1.71504 8.46998C1.60837 8.57665 1.50991 8.78178 1.48529 8.92127L1.04222 12.0638C0.960165 12.6218 1.11606 13.1469 1.46068 13.4997C1.75606 13.7869 2.16632 13.9428 2.6094 13.9428C2.70786 13.9428 2.80632 13.9346 2.90478 13.9182L6.05555 13.4751C6.20324 13.4505 6.40835 13.352 6.50681 13.2454L11.2012 8.55097C11.4142 8.33796 11.3339 7.97251 11.0569 7.85427C11.0257 7.84098 10.9941 7.82736 10.9622 7.81357Z" fill="#9E79DE"/>
</svg>
