<svg width="16" height="16" viewBox="0 0 16 16" fill="none" xmlns="http://www.w3.org/2000/svg">
<path d="M8.00002 0C3.58399 0 0 3.58399 0 7.99998C0 12.416 3.58399 16 8.00002 16C12.416 16 16 12.416 16 7.99998C16 3.58399 12.424 0 8.00002 0ZM10.4 9.78398L8.07994 11.12C7.79194 11.288 7.47202 11.368 7.15994 11.368C6.84002 11.368 6.52794 11.288 6.23998 11.12C5.66399 10.784 5.31999 10.192 5.31999 9.51998V6.83998C5.31999 6.17598 5.66399 5.57599 6.23998 5.23999C6.81602 4.90399 7.50394 4.90399 8.08794 5.23999L10.4079 6.57598C10.9839 6.91198 11.3279 7.50398 11.3279 8.17598C11.3279 8.84798 10.9839 9.44798 10.4 9.78398Z" fill="#9E79DE"/>
</svg>
