<svg width="17" height="16" viewBox="0 0 17 16" fill="none" xmlns="http://www.w3.org/2000/svg">
<path d="M12.2979 16C11.9008 16 11.3912 15.8726 10.7542 15.4979L8.51341 14.1714C8.28109 14.0365 7.83144 14.0365 7.60662 14.1714L5.35839 15.4979C4.03193 16.2848 3.25254 15.97 2.90032 15.7152C2.55559 15.4604 2.01601 14.8084 2.36823 13.3096L2.90032 11.0089C2.96027 10.7691 2.84037 10.3569 2.66051 10.1771L0.801961 8.31851C-0.127312 7.38924 -0.0523707 6.59486 0.0750296 6.20514C0.20243 5.81545 0.607113 5.12599 1.8961 4.90866L4.28673 4.51147C4.51156 4.474 4.83381 4.23419 4.93123 4.03184L6.25769 1.38641C6.85721 0.179859 7.64409 0 8.05627 0C8.46845 0 9.25533 0.179859 9.85486 1.38641L11.1738 4.02435C11.2787 4.22669 11.601 4.4665 11.8258 4.50398L14.2164 4.90116C15.5129 5.11849 15.9176 5.80795 16.0375 6.19765C16.1574 6.58737 16.2324 7.38175 15.3106 8.31102L13.452 10.1771C13.2722 10.3569 13.1598 10.7616 13.2122 11.0089L13.7443 13.3096C14.089 14.8084 13.557 15.4604 13.2122 15.7152C13.0249 15.8501 12.7251 16 12.2979 16ZM8.05627 12.9424C8.42348 12.9424 8.79069 13.0323 9.08296 13.2047L11.3237 14.5311C11.9757 14.9208 12.3879 14.9208 12.5453 14.8084C12.7026 14.696 12.815 14.2988 12.6502 13.5644L12.1181 11.2637C11.9757 10.6417 12.208 9.83982 12.6577 9.38268L14.5162 7.52413C14.8834 7.15692 15.0483 6.7972 14.9734 6.5499C14.8909 6.30257 14.5462 6.10023 14.0366 6.01779L11.646 5.6206C11.0689 5.52318 10.4394 5.05854 10.1771 4.53395L8.85814 1.89602C8.61833 1.41639 8.31856 1.13161 8.05627 1.13161C7.79397 1.13161 7.49421 1.41639 7.26189 1.89602L5.93544 4.53395C5.67315 5.05854 5.04364 5.52318 4.46659 5.6206L2.08346 6.01779C1.57386 6.10023 1.22913 6.30257 1.14669 6.5499C1.06426 6.7972 1.23662 7.16441 1.60383 7.52413L3.46238 9.38268C3.91203 9.83233 4.14434 10.6417 4.00196 11.2637L3.46987 13.5644C3.29751 14.3063 3.41741 14.696 3.57479 14.8084C3.73217 14.9208 4.13685 14.9134 4.79633 14.5311L7.03707 13.2047C7.32184 13.0323 7.68906 12.9424 8.05627 12.9424Z" fill="#9E79DE"/>
</svg>
