<svg width="18" height="18" viewBox="0 0 18 18" fill="none" xmlns="http://www.w3.org/2000/svg">
<path d="M13.8209 5.13527C13.7728 5.12726 13.7167 5.12726 13.6686 5.13527C12.5627 5.0952 11.6812 4.18961 11.6812 3.06764C11.6812 1.92162 12.6028 1 13.7488 1C14.8948 1 15.8164 1.92963 15.8164 3.06764C15.8084 4.18961 14.9269 5.0952 13.8209 5.13527Z" stroke="#A5EEA0" stroke-linecap="round" stroke-linejoin="round"/>
<path d="M12.9949 10.9703C14.0929 11.1546 15.303 10.9623 16.1525 10.3933C17.2825 9.63997 17.2825 8.4058 16.1525 7.65247C15.295 7.08349 14.0688 6.89114 12.9709 7.08348" stroke="#A5EEA0" stroke-linecap="round" stroke-linejoin="round"/>
<path d="M4.17886 5.13527C4.22694 5.12726 4.28304 5.12726 4.33113 5.13527C5.43707 5.0952 6.31862 4.18961 6.31862 3.06764C6.31862 1.92162 5.397 1 4.25099 1C3.10497 1 2.18335 1.92963 2.18335 3.06764C2.19136 4.18961 3.07291 5.0952 4.17886 5.13527Z" stroke="#A5EEA0" stroke-linecap="round" stroke-linejoin="round"/>
<path d="M5.00504 10.9703C3.90711 11.1546 2.69698 10.9623 1.84749 10.3933C0.717503 9.63997 0.717503 8.4058 1.84749 7.65247C2.705 7.08349 3.93115 6.89114 5.02908 7.08348" stroke="#A5EEA0" stroke-linecap="round" stroke-linejoin="round"/>
<path d="M9.0127 11.1221C8.96462 11.1141 8.90852 11.1141 8.86044 11.1221C7.75449 11.082 6.87292 10.1764 6.87292 9.05448C6.87292 7.90846 7.79456 6.98682 8.94058 6.98682C10.0866 6.98682 11.0082 7.91648 11.0082 9.05448C11.0002 10.1764 10.1186 11.0901 9.0127 11.1221Z" stroke="#A5EEA0" stroke-linecap="round" stroke-linejoin="round"/>
<path d="M11.3451 13.6459C10.0709 12.7964 7.96318 12.7964 6.68093 13.6459C5.55094 14.3992 5.55094 15.6334 6.68093 16.3867C7.96318 17.2442 10.0629 17.2442 11.3451 16.3867" stroke="#A5EEA0" stroke-linecap="round" stroke-linejoin="round"/>
</svg>
