<svg width="16" height="16" viewBox="0 0 16 16" fill="none" xmlns="http://www.w3.org/2000/svg">
<path d="M5.02326 16C4.81488 16 4.59905 15.9457 4.40557 15.8371C3.98138 15.6045 3.72093 15.1391 3.72093 14.6428V13.5415C1.47349 13.3011 0 11.5792 0 9.11293V4.45953C0 1.79157 1.71907 0 4.27907 0H11.7209C14.2809 0 16 1.79157 16 4.45953V9.11293C16 11.7809 14.2809 13.5725 11.7209 13.5725H8.91535L5.74509 15.7752C5.52928 15.9225 5.27628 16 5.02326 16ZM4.27907 1.15559C2.35907 1.15559 1.11628 2.4508 1.11628 4.45177V9.10525C1.11628 11.1062 2.35907 12.4014 4.27907 12.4014C4.58419 12.4014 4.83721 12.6651 4.83721 12.9831V14.6351C4.83721 14.7359 4.89674 14.7824 4.93395 14.8057C4.97117 14.829 5.04559 14.8522 5.12745 14.7979L8.43907 12.5023C8.52837 12.4402 8.64 12.4014 8.75163 12.4014H11.7284C13.6484 12.4014 14.8912 11.1062 14.8912 9.10525V4.45177C14.8912 2.4508 13.6484 1.15559 11.7284 1.15559H4.27907Z" fill="#A5EEA1"/>
<path d="M8 8.08119C7.69489 8.08119 7.44186 7.8175 7.44186 7.49951V7.33664C7.44186 6.43698 8.07442 5.9949 8.31256 5.82427C8.58791 5.63038 8.67721 5.49854 8.67721 5.29689C8.67721 4.90911 8.37209 4.59109 8 4.59109C7.62791 4.59109 7.32279 4.90911 7.32279 5.29689C7.32279 5.61488 7.06977 5.87857 6.76465 5.87857C6.45957 5.87857 6.20654 5.61488 6.20654 5.29689C6.20654 4.26538 7.01023 3.42773 8 3.42773C8.98977 3.42773 9.79349 4.26538 9.79349 5.29689C9.79349 6.18104 9.16837 6.62312 8.93768 6.78599C8.64744 6.98764 8.55814 7.11948 8.55814 7.33664V7.49951C8.55814 7.82525 8.30512 8.08119 8 8.08119Z" fill="#A5EEA1"/>
<path d="M7.99979 10.0115C7.68723 10.0115 7.44165 9.74781 7.44165 9.42982C7.44165 9.11184 7.69467 8.84814 7.99979 8.84814C8.30491 8.84814 8.55793 9.11184 8.55793 9.42982C8.55793 9.74781 8.31235 10.0115 7.99979 10.0115Z" fill="#A5EEA1"/>
</svg>
