<svg width="16" height="16" viewBox="0 0 16 16" fill="none" xmlns="http://www.w3.org/2000/svg">
<path d="M15.0059 15.9998H0.600234C0.272106 15.9998 0 15.7277 0 15.3996C0 15.0714 0.272106 14.7993 0.600234 14.7993H15.0059C15.334 14.7993 15.6061 15.0714 15.6061 15.3996C15.6061 15.7277 15.334 15.9998 15.0059 15.9998Z" fill="#EAD15E"/>
<path d="M13.4215 1.17951C11.8689 -0.373098 10.3483 -0.413114 8.75568 1.17951L7.78731 2.14789C7.70727 2.22792 7.67526 2.35597 7.70727 2.46801C8.31551 4.58884 10.0122 6.2855 12.133 6.89372C12.165 6.90173 12.197 6.90973 12.229 6.90973C12.3171 6.90973 12.3971 6.87772 12.4611 6.81369L13.4215 5.84533C14.2138 5.06102 14.598 4.30073 14.598 3.53243C14.606 2.74012 14.2218 1.97182 13.4215 1.17951Z" fill="#EAD15E"/>
<path d="M10.6923 7.6217C10.4602 7.50966 10.2361 7.39761 10.02 7.26956C9.84393 7.16552 9.67586 7.05348 9.5078 6.93343C9.37174 6.8454 9.21168 6.71735 9.05962 6.5893C9.04361 6.58129 8.98759 6.53328 8.92357 6.46925C8.65946 6.24515 8.36335 5.95703 8.09925 5.63691C8.07524 5.6209 8.03522 5.56488 7.9792 5.49285C7.89917 5.39682 7.76311 5.23675 7.64307 5.05268C7.54703 4.93263 7.43499 4.75657 7.33095 4.5805C7.2029 4.36441 7.09085 4.14833 6.97881 3.92424C6.96184 3.88791 6.94543 3.85176 6.92959 3.81583C6.81146 3.54907 6.46357 3.47108 6.25733 3.67737L1.67275 8.26195C1.56871 8.36599 1.47267 8.56607 1.44866 8.70212L1.0165 11.7673C0.936464 12.3115 1.08852 12.8237 1.42465 13.1679C1.71277 13.448 2.11292 13.6 2.54509 13.6C2.64113 13.6 2.73717 13.592 2.8332 13.576L5.9064 13.1439C6.05046 13.1198 6.25052 13.0238 6.34656 12.9198L10.9254 8.34094C11.1332 8.13318 11.0548 7.77672 10.7846 7.6614C10.7542 7.64843 10.7234 7.63515 10.6923 7.6217Z" fill="#EAD15E"/>
</svg>
