<svg width="16" height="16" viewBox="0 0 16 16" fill="none" xmlns="http://www.w3.org/2000/svg">
<path d="M5.02326 15.3525C4.81488 15.3525 4.59905 15.3004 4.40557 15.1962C3.98138 14.973 3.72093 14.5265 3.72093 14.0502V12.9935C1.47349 12.7628 0 11.1107 0 8.74416V4.27907C0 1.71907 1.71907 0 4.27907 0H11.7209C14.2809 0 16 1.71907 16 4.27907V8.74416C16 11.3042 14.2809 13.0232 11.7209 13.0232H8.91535L5.74509 15.1368C5.52928 15.2782 5.27628 15.3525 5.02326 15.3525ZM4.27907 1.10883C2.35907 1.10883 1.11628 2.35162 1.11628 4.27162V8.73679C1.11628 10.6568 2.35907 11.8996 4.27907 11.8996C4.58419 11.8996 4.83721 12.1526 4.83721 12.4577V14.0428C4.83721 14.1396 4.89674 14.1842 4.93395 14.2066C4.97117 14.2289 5.04559 14.2512 5.12745 14.1991L8.43907 11.9963C8.52837 11.9368 8.64 11.8996 8.75163 11.8996H11.7284C13.6484 11.8996 14.8912 10.6568 14.8912 8.73679V4.27162C14.8912 2.35162 13.6484 1.10883 11.7284 1.10883H4.27907Z" fill="#EAD15E"/>
<path d="M7.99997 7.75421C7.69485 7.75421 7.44183 7.50119 7.44183 7.19607V7.03979C7.44183 6.17653 8.07439 5.75234 8.31253 5.58862C8.58788 5.40257 8.67718 5.27607 8.67718 5.08258C8.67718 4.71049 8.37206 4.40534 7.99997 4.40534C7.62788 4.40534 7.32276 4.71049 7.32276 5.08258C7.32276 5.3877 7.06974 5.64072 6.76462 5.64072C6.45954 5.64072 6.20651 5.3877 6.20651 5.08258C6.20651 4.09281 7.0102 3.28906 7.99997 3.28906C8.98974 3.28906 9.79346 4.09281 9.79346 5.08258C9.79346 5.93095 9.16834 6.35514 8.93765 6.51142C8.64741 6.70491 8.55811 6.83142 8.55811 7.03979V7.19607C8.55811 7.50863 8.30509 7.75421 7.99997 7.75421Z" fill="#EAD15E"/>
<path d="M7.99991 9.607C7.68735 9.607 7.44177 9.35398 7.44177 9.04886C7.44177 8.74375 7.6948 8.49072 7.99991 8.49072C8.30503 8.49072 8.55805 8.74375 8.55805 9.04886C8.55805 9.35398 8.31247 9.607 7.99991 9.607Z" fill="#EAD15E"/>
</svg>
