<svg width="13" height="13" viewBox="0 0 13 13" fill="none" xmlns="http://www.w3.org/2000/svg">
<g clip-path="url(#clip0_640_2)">
<path d="M12.522 10.0019L8.88985 6.36927L12.2603 2.99885C12.8979 2.36203 12.8979 1.32909 12.2603 0.691723C11.6232 0.0546277 10.5902 0.0549038 9.9537 0.691723L6.58273 4.06214L3.04696 0.5261C2.40959 -0.110995 1.37665 -0.110995 0.739834 0.5261C0.103015 1.16347 0.103015 2.19585 0.739834 2.83322L4.27588 6.36927L0.478151 10.1667C-0.159221 10.8044 -0.159221 11.8367 0.478151 12.4741C1.11525 13.1109 2.1479 13.1109 2.78472 12.4741L6.58273 8.67639L10.2154 12.309C10.8525 12.9461 11.8851 12.9461 12.522 12.309C13.1596 11.6714 13.1593 10.6385 12.522 10.0019Z" fill="#F81A1A"/>
</g>
<defs>
<clipPath id="clip0_640_2">
<rect width="13" height="13" fill="white"/>
</clipPath>
</defs>
</svg>
