<svg width="21" height="17" fill="none" xmlns="http://www.w3.org/2000/svg"><g clip-path="url(#a)"><path d="M19.031.531H1.97C.883.531 0 1.425 0 2.523v11.954c0 1.098.883 1.992 1.969 1.992H19.03c1.086 0 1.969-.894 1.969-1.992V2.523c0-1.098-.883-1.992-1.969-1.992Zm0 1.328c.09 0 .174.02.252.052L10.5 9.613 1.717 1.911a.647.647 0 0 1 .252-.052H19.03Zm0 13.282H1.97a.66.66 0 0 1-.657-.665V3.314l8.758 7.68a.65.65 0 0 0 .86 0l8.758-7.68v11.163a.66.66 0 0 1-.657.664Z" fill="#BAEDB2"/></g><defs><clipPath id="a"><path fill="#fff" d="M0 0h21v17H0z"/></clipPath></defs></svg>