<svg width="17" height="17" fill="none" xmlns="http://www.w3.org/2000/svg"><g clip-path="url(#a)"><path d="M15.842 11.306c-.864-.694-1.656-1.032-2.422-1.032-1.108 0-1.906.705-2.628 1.427a.42.42 0 0 1-.317.122c-.608 0-1.68-.762-3.182-2.266C5.524 7.79 4.855 6.664 5.305 6.214c1.219-1.218 1.6-2.44-.267-4.76C4.37.621 3.717.217 3.04.217 2.128.218 1.434.947.822 1.59c-.106.11-.206.216-.304.314-.691.691-.69 2.2.001 4.035.76 2.014 2.26 4.204 4.223 6.168 1.519 1.518 3.171 2.746 4.778 3.57 1.404.719 2.765 1.104 3.834 1.104.669 0 1.212-.145 1.57-.442.729-.602 2.085-1.718 2.076-3.044-.005-.71-.395-1.377-1.158-1.99Z" fill="#BAEDB2"/></g><defs><clipPath id="a"><path fill="#fff" d="M0 0h17v17H0z"/></clipPath></defs></svg>