<svg width="51" height="51" viewBox="0 0 51 51" fill="none" xmlns="http://www.w3.org/2000/svg">
<circle cx="25.5" cy="25.5" r="25.5" fill="#9FF199"/>
<path d="M28.375 28.5C28.25 28.8958 28.1823 29.5104 28.1719 30.3438H23.9531C24.0156 28.5833 24.1823 27.3698 24.4531 26.7031C24.724 26.026 25.4219 25.25 26.5469 24.375L27.6875 23.4844C28.0625 23.2031 28.3646 22.8958 28.5938 22.5625C29.0104 21.9896 29.2188 21.3594 29.2188 20.6719C29.2188 19.8802 28.9844 19.1615 28.5156 18.5156C28.0573 17.8594 27.2135 17.5312 25.9844 17.5312C24.776 17.5312 23.9167 17.9323 23.4062 18.7344C22.9062 19.5365 22.6562 20.3698 22.6562 21.2344H18.1406C18.2656 18.2656 19.3021 16.1615 21.25 14.9219C22.4792 14.1302 23.9896 13.7344 25.7812 13.7344C28.1354 13.7344 30.0885 14.2969 31.6406 15.4219C33.2031 16.5469 33.9844 18.2135 33.9844 20.4219C33.9844 21.776 33.6458 22.9167 32.9688 23.8438C32.5729 24.4062 31.8125 25.125 30.6875 26L29.5781 26.8594C28.974 27.3281 28.5729 27.875 28.375 28.5ZM28.5 37H23.8438V32.4844H28.5V37Z" fill="#1B1D25"/>
</svg>
