<svg width="50" height="50" viewBox="0 0 50 50" fill="none" xmlns="http://www.w3.org/2000/svg">
<path d="M25 3.125C12.9373 3.125 3.125 12.9373 3.125 25C3.125 37.0627 12.9373 46.875 25 46.875C37.0627 46.875 46.875 37.0627 46.875 25C46.875 12.9373 37.0627 3.125 25 3.125ZM36.1938 16.7999C36.8396 17.3729 36.8984 18.3609 36.3251 19.0063L23.8251 33.0688C23.2078 33.7636 22.1242 33.7693 21.4997 33.0813L13.6872 24.4876C13.1076 23.8487 13.1554 22.8611 13.794 22.2812C14.4329 21.7017 15.4205 21.7495 16.0005 22.388L22.6441 29.6939L33.9875 16.9314C34.6112 16.252 35.5751 16.2474 36.1938 16.7999Z" fill="white"/>
</svg>
