<svg width="20" height="20" viewBox="0 0 20 20" fill="none" xmlns="http://www.w3.org/2000/svg">
<g clip-path="url(#clip0_614_38)">
<path d="M5.3322 8.53696C5.20174 8.23119 5.06721 7.92135 4.93675 7.61966L4.43122 6.44552C3.93792 5.34477 4.33337 4.10948 5.36889 3.51018L5.42189 3.48164C5.74804 3.31041 6.11904 3.22072 6.48596 3.22072C7.27687 3.22072 8.00663 3.62433 8.43877 4.30517C8.76492 4.80662 9.06661 5.29993 9.38461 5.82176L9.5966 6.1683L9.60068 6.17237C9.88198 5.60161 10.0451 4.96155 10.0451 4.28071C10.0451 1.91613 8.12893 0 5.76435 0C3.39977 0 1.48364 1.91613 1.48364 4.28071C1.48364 6.49852 3.17146 8.32088 5.3322 8.53696Z" fill="black"/>
<path d="M18.4515 16.5317C18.6024 16.87 18.4801 17.2614 18.1906 17.4734L14.6927 19.7605C14.1138 20.1275 13.3432 20.0745 12.8295 19.5893C11.2681 18.1053 9.21336 17.4571 9.21336 17.4571C8.69152 17.294 8.23084 17.082 7.79054 16.6866C7.497 16.4134 7.04447 16.124 6.74686 15.8753C5.95595 15.2271 5.10388 14.6522 4.17843 14.2323C3.76667 14.0529 3.68921 13.7757 3.89305 13.368C3.99497 13.1642 4.26405 12.9236 4.48827 12.838C4.99381 12.6505 5.49526 12.732 5.9641 12.8625C6.25356 12.9196 7.46031 13.6942 8.02292 13.9714C8.50806 14.2119 8.63445 13.7675 8.63852 13.2294C8.63852 12.9603 8.56106 12.7116 8.47953 12.4589C7.58262 10.2655 6.63271 8.09255 5.6828 5.89512C5.46672 5.41405 5.62164 4.94929 6.05379 4.69652C6.48186 4.47229 7.0037 4.61091 7.28093 5.04305C7.67231 5.65051 8.03922 6.25388 8.4306 6.8858C8.77306 7.46063 9.14405 8.01101 9.48651 8.58585L9.92274 9.27892C9.92274 9.27892 13.0212 8.45131 16.3112 9.60914C16.4906 9.68253 16.6414 9.80483 16.6985 10.0005C16.9961 10.7303 17.7748 12.7483 17.8441 14.64C17.9256 15.1333 18.0683 15.5532 18.1458 15.8304L18.4515 16.5317Z" fill="black"/>
</g>
<defs>
<clipPath id="clip0_614_38">
<rect width="20" height="20" fill="white"/>
</clipPath>
</defs>
</svg>
