<svg xmlns="http://www.w3.org/2000/svg" width="50" height="50" fill="none"><path fill="#fff" d="M44.347 11.835a101.19 101.19 0 0 1 3.437-2.777 1.041 1.041 0 0 0-.84-1.847c-.165.033-1.866.402-4.896 1.755C33.434-.223 19.11-.96 9.603 7.3.096 15.558-1.2 29.861 6.668 39.698c7.868 9.837 22.09 11.695 32.215 4.208 10.124-7.487 12.536-21.645 5.462-32.069l.002-.002ZM25.943 46.462v-1.703a1.042 1.042 0 1 0-2.083 0v1.703c-10.98-.53-19.817-9.378-20.345-20.373h1.7a1.042 1.042 0 0 0 0-2.086h-1.7C4.043 13.01 12.88 4.16 23.86 3.631v1.702a1.042 1.042 0 1 0 2.084 0v-1.7A21.421 21.421 0 0 1 40.06 9.905c-4.382 2.19-10.718 6.068-18.622 12.86l-9.906-2.4a1.044 1.044 0 0 0-.989 1.745l11.798 12.017c.195.2.463.313.742.313h.09c.31-.027.592-.191.769-.448.084-.122 7.513-10.847 18.812-20.782a21.233 21.233 0 0 1 3.533 10.792h-1.7a1.042 1.042 0 0 0 0 2.086h1.701c-.529 10.995-9.366 19.844-20.346 20.373Z"/></svg>