<svg xmlns="http://www.w3.org/2000/svg" width="22" height="22" fill="none"><g fill="#fff" clip-path="url(#a)"><path d="M5.865 9.39c-.143-.336-.291-.677-.435-1.008L4.874 7.09c-.542-1.21-.107-2.57 1.032-3.229l.058-.031a2.536 2.536 0 0 1 3.319.906c.358.551.69 1.094 1.04 1.668l.233.381.005.005a4.69 4.69 0 0 0 .489-2.081A4.708 4.708 0 1 0 5.865 9.39Z"/><path d="M20.297 18.185a.859.859 0 0 1-.287 1.036l-3.848 2.516a1.678 1.678 0 0 1-2.05-.189c-1.717-1.632-3.977-2.345-3.977-2.345-.574-.18-1.081-.413-1.565-.848-.323-.3-.821-.619-1.149-.892-.87-.713-1.807-1.346-2.825-1.807-.453-.198-.538-.503-.314-.951.112-.224.408-.489.655-.583.556-.206 1.108-.117 1.623.027.319.063 1.646.915 2.265 1.22.534.264.673-.225.677-.817 0-.296-.085-.57-.175-.847-.986-2.413-2.031-4.803-3.076-7.22-.238-.53-.067-1.04.408-1.319.471-.246 1.045-.094 1.35.381.43.669.834 1.332 1.265 2.027.376.633.784 1.238 1.161 1.87l.48.763s3.408-.91 7.027.363c.198.08.363.215.426.43.328.803 1.184 3.023 1.26 5.104.09.543.247 1.005.332 1.31l.337.77Z"/></g><defs><clipPath id="a"><path fill="#fff" d="M0 0h22v22H0z"/></clipPath></defs></svg>