<svg width="17" height="17" fill="none" xmlns="http://www.w3.org/2000/svg"><g clip-path="url(#a)" fill="#BAEDB2"><path d="M8.501 8.828a4.426 4.426 0 0 0 4.414-4.414A4.426 4.426 0 0 0 8.501 0a4.426 4.426 0 0 0-4.414 4.414 4.426 4.426 0 0 0 4.414 4.414ZM16.076 12.355a4.109 4.109 0 0 0-.443-.81c-.887-1.31-2.255-2.178-3.797-2.39a.813.813 0 0 0-.56.135 4.643 4.643 0 0 1-2.775.906 4.643 4.643 0 0 1-2.775-.906.723.723 0 0 0-.56-.135 5.447 5.447 0 0 0-3.796 2.39c-.174.25-.328.54-.444.81-.057.116-.038.25.02.366.154.27.347.54.52.771.27.366.559.694.887 1.002.27.27.578.52.886.771A8.732 8.732 0 0 0 8.482 17c1.889 0 3.72-.598 5.243-1.735a8.47 8.47 0 0 0 .886-.77c.309-.309.617-.637.887-1.003.193-.25.366-.501.52-.77.097-.117.116-.252.058-.367Z"/></g><defs><clipPath id="a"><path fill="#fff" d="M0 0h17v17H0z"/></clipPath></defs></svg>