<svg width="80" height="80" viewBox="0 0 80 80" fill="none" xmlns="http://www.w3.org/2000/svg">
<g opacity="0.25">
<path d="M6.66675 50C6.66675 55.5229 11.1439 60 16.6667 60L63.3334 60C68.8563 60 73.3334 55.5229 73.3334 50V16.6667C73.3334 11.1438 68.8563 6.66669 63.3334 6.66669H16.6667C11.1439 6.66669 6.66675 11.1438 6.66675 16.6667V50Z" fill="white"/>
<path d="M26.6667 66.6667C24.8258 66.6667 23.3334 68.1591 23.3334 70C23.3334 71.841 24.8258 73.3334 26.6667 73.3334H53.3334C55.1744 73.3334 56.6668 71.841 56.6668 70C56.6668 68.1591 55.1744 66.6667 53.3334 66.6667H26.6667Z" fill="white"/>
</g>
<path d="M23.3333 20C21.4924 20 20 21.4924 20 23.3333C20 25.1743 21.4924 26.6667 23.3333 26.6667H46.6667C48.5076 26.6667 50 25.1743 50 23.3333C50 21.4924 48.5076 20 46.6667 20H23.3333Z" fill="white"/>
<path d="M23.3333 33.3333C21.4924 33.3333 20 34.8257 20 36.6667C20 38.5076 21.4924 40 23.3333 40H30C31.841 40 33.3333 38.5076 33.3333 36.6667C33.3333 34.8257 31.841 33.3333 30 33.3333H23.3333Z" fill="white"/>
</svg>
