<svg width="80" height="80" viewBox="0 0 80 80" fill="none" xmlns="http://www.w3.org/2000/svg">
<path opacity="0.25" d="M6.66663 21.6667C6.66663 13.3824 13.3824 6.66669 21.6666 6.66669H58.3333C66.6176 6.66669 73.3333 13.3824 73.3333 21.6667C73.3333 29.951 66.6176 36.6667 58.3333 36.6667H21.6666C13.3824 36.6667 6.66663 29.951 6.66663 21.6667Z" fill="white"/>
<path d="M66.6667 21.6666C66.6667 26.269 62.9357 30 58.3333 30C53.731 30 50 26.269 50 21.6666C50 17.0643 53.731 13.3333 58.3333 13.3333C62.9357 13.3333 66.6667 17.0643 66.6667 21.6666Z" fill="white"/>
<path opacity="0.25" d="M6.66663 58.3333C6.66663 50.049 13.3824 43.3333 21.6666 43.3333H58.3333C66.6176 43.3333 73.3333 50.049 73.3333 58.3333C73.3333 66.6176 66.6176 73.3333 58.3333 73.3333H21.6666C13.3824 73.3333 6.66663 66.6176 6.66663 58.3333Z" fill="white"/>
<path d="M30 58.3333C30 62.9357 26.2691 66.6667 21.6667 66.6667C17.0643 66.6667 13.3334 62.9357 13.3334 58.3333C13.3334 53.731 17.0643 50 21.6667 50C26.2691 50 30 53.731 30 58.3333Z" fill="white"/>
</svg>
